<svg xmlns="http://www.w3.org/2000/svg" id="export" class="canvas" preserveAspectRatio="xMidYMid meet" style="" width="144" height="897"><rect id="background" fill="#fff" pointer-events="all" width="144" height="897"/><g id="origin" transform="translate(6.525, 6.525) scale(1)"><g id="clusters" class="clusters"/><g id="edge-paths" class="edge-paths"><defs><marker id="arrowhead" viewBox="0 0 10 10" refX="9" refY="5" markerUnits="strokeWidth" markerWidth="8" markerHeight="6" orient="auto" style="fill: rgb(0, 0, 0);"><path d="M 0 0 L 10 5 L 0 10 L 4 5 z" style="stroke-width: 1;"/></marker><marker id="arrowhead-select" viewBox="0 0 10 10" refX="9" refY="5" markerUnits="strokeWidth" markerWidth="8" markerHeight="6" orient="auto" style="fill: rgb(238, 0, 0);"><path d="M 0 0 L 10 5 L 0 10 L 4 5 z" style="stroke-width: 1;"/></marker><marker id="arrowhead-hover" viewBox="0 0 10 10" refX="9" refY="5" markerUnits="strokeWidth" markerWidth="8" markerHeight="6" orient="auto"><path d="M 0 0 L 10 5 L 0 10 L 4 5 z" style="stroke-width: 1;"/></marker></defs><path id="edge-players-monsters" class="edge-path" d="M52.84375,21.0302734375L52.84375,22.696940104166668C52.84375,24.363606770833332,52.84375,27.696940104166668,52.84375,32.863606770833336C52.84375,38.0302734375,52.84375,45.0302734375,52.84375,52.0302734375C52.84375,59.0302734375,52.84375,66.0302734375,52.84375,71.19694010416667C52.84375,76.36360677083333,52.84375,79.69694010416667,52.84375,81.36360677083333L52.84375,83.0302734375" style="stroke: rgb(0, 0, 0); stroke-width: 1px; fill: none; marker-end: url(&quot;#arrowhead&quot;);"/><path class="edge-path-hit-test" d="M52.84375,21.0302734375L52.84375,22.696940104166668C52.84375,24.363606770833332,52.84375,27.696940104166668,52.84375,32.863606770833336C52.84375,38.0302734375,52.84375,45.0302734375,52.84375,52.0302734375C52.84375,59.0302734375,52.84375,66.0302734375,52.84375,71.19694010416667C52.84375,76.36360677083333,52.84375,79.69694010416667,52.84375,81.36360677083333L52.84375,83.0302734375" style="pointer-events: stroke; stroke-width: 0.5em; fill: none; stroke: rgb(0, 0, 0); stroke-opacity: 0.001;"/><path id="edge-/path/path.0/Gemm_output_0" class="edge-path" d="M52.84375,136.0302734375L52.84375,137.69694010416666C52.84375,139.36360677083334,52.84375,142.69694010416666,52.84375,146.0302734375C52.84375,149.36360677083334,52.84375,152.69694010416666,52.84375,154.36360677083334L52.84375,156.0302734375" style="stroke: rgb(0, 0, 0); stroke-width: 1px; fill: none; marker-end: url(&quot;#arrowhead&quot;);"/><path class="edge-path-hit-test" d="M52.84375,136.0302734375L52.84375,137.69694010416666C52.84375,139.36360677083334,52.84375,142.69694010416666,52.84375,146.0302734375C52.84375,149.36360677083334,52.84375,152.69694010416666,52.84375,154.36360677083334L52.84375,156.0302734375" style="pointer-events: stroke; stroke-width: 0.5em; fill: none; stroke: rgb(0, 0, 0); stroke-opacity: 0.001;"/><path id="edge-/path/path.1/Relu_output_0" class="edge-path" d="M52.84375,177.0302734375L52.84375,178.69694010416666C52.84375,180.36360677083334,52.84375,183.69694010416666,52.84375,187.0302734375C52.84375,190.36360677083334,52.84375,193.69694010416666,52.84375,195.36360677083334L52.84375,197.0302734375" style="stroke: rgb(0, 0, 0); stroke-width: 1px; fill: none; marker-end: url(&quot;#arrowhead&quot;);"/><path class="edge-path-hit-test" d="M52.84375,177.0302734375L52.84375,178.69694010416666C52.84375,180.36360677083334,52.84375,183.69694010416666,52.84375,187.0302734375C52.84375,190.36360677083334,52.84375,193.69694010416666,52.84375,195.36360677083334L52.84375,197.0302734375" style="pointer-events: stroke; stroke-width: 0.5em; fill: none; stroke: rgb(0, 0, 0); stroke-opacity: 0.001;"/><path id="edge-/path/path.3/Gemm_output_0" class="edge-path" d="M52.84375,250.0302734375L52.84375,251.69694010416666C52.84375,253.36360677083334,52.84375,256.6969401041667,52.84375,260.0302734375C52.84375,263.3636067708333,52.84375,266.6969401041667,52.84375,268.3636067708333L52.84375,270.0302734375" style="stroke: rgb(0, 0, 0); stroke-width: 1px; fill: none; marker-end: url(&quot;#arrowhead&quot;);"/><path class="edge-path-hit-test" d="M52.84375,250.0302734375L52.84375,251.69694010416666C52.84375,253.36360677083334,52.84375,256.6969401041667,52.84375,260.0302734375C52.84375,263.3636067708333,52.84375,266.6969401041667,52.84375,268.3636067708333L52.84375,270.0302734375" style="pointer-events: stroke; stroke-width: 0.5em; fill: none; stroke: rgb(0, 0, 0); stroke-opacity: 0.001;"/><path id="edge-/path/path.4/Relu_output_0" class="edge-path" d="M52.84375,291.0302734375L52.84375,292.6969401041667C52.84375,294.3636067708333,52.84375,297.6969401041667,52.84375,301.0302734375C52.84375,304.3636067708333,52.84375,307.6969401041667,52.84375,309.3636067708333L52.84375,311.0302734375" style="stroke: rgb(0, 0, 0); stroke-width: 1px; fill: none; marker-end: url(&quot;#arrowhead&quot;);"/><path class="edge-path-hit-test" d="M52.84375,291.0302734375L52.84375,292.6969401041667C52.84375,294.3636067708333,52.84375,297.6969401041667,52.84375,301.0302734375C52.84375,304.3636067708333,52.84375,307.6969401041667,52.84375,309.3636067708333L52.84375,311.0302734375" style="pointer-events: stroke; stroke-width: 0.5em; fill: none; stroke: rgb(0, 0, 0); stroke-opacity: 0.001;"/><path id="edge-/path/path.6/Gemm_output_0" class="edge-path" d="M52.84375,364.0302734375L52.84375,365.6969401041667C52.84375,367.3636067708333,52.84375,370.6969401041667,52.84375,374.0302734375C52.84375,377.3636067708333,52.84375,380.6969401041667,52.84375,382.3636067708333L52.84375,384.0302734375" style="stroke: rgb(0, 0, 0); stroke-width: 1px; fill: none; marker-end: url(&quot;#arrowhead&quot;);"/><path class="edge-path-hit-test" d="M52.84375,364.0302734375L52.84375,365.6969401041667C52.84375,367.3636067708333,52.84375,370.6969401041667,52.84375,374.0302734375C52.84375,377.3636067708333,52.84375,380.6969401041667,52.84375,382.3636067708333L52.84375,384.0302734375" style="pointer-events: stroke; stroke-width: 0.5em; fill: none; stroke: rgb(0, 0, 0); stroke-opacity: 0.001;"/><path id="edge-/path/path.7/Relu_output_0" class="edge-path" d="M52.84375,405.0302734375L52.84375,406.6969401041667C52.84375,408.3636067708333,52.84375,411.6969401041667,52.84375,415.0302734375C52.84375,418.3636067708333,52.84375,421.6969401041667,52.84375,423.3636067708333L52.84375,425.0302734375" style="stroke: rgb(0, 0, 0); stroke-width: 1px; fill: none; marker-end: url(&quot;#arrowhead&quot;);"/><path class="edge-path-hit-test" d="M52.84375,405.0302734375L52.84375,406.6969401041667C52.84375,408.3636067708333,52.84375,411.6969401041667,52.84375,415.0302734375C52.84375,418.3636067708333,52.84375,421.6969401041667,52.84375,423.3636067708333L52.84375,425.0302734375" style="pointer-events: stroke; stroke-width: 0.5em; fill: none; stroke: rgb(0, 0, 0); stroke-opacity: 0.001;"/><path id="edge-/path/path.9/Gemm_output_0" class="edge-path" d="M52.84375,478.0302734375L52.84375,479.6969401041667C52.84375,481.3636067708333,52.84375,484.6969401041667,52.84375,488.0302734375C52.84375,491.3636067708333,52.84375,494.6969401041667,52.84375,496.3636067708333L52.84375,498.0302734375" style="stroke: rgb(0, 0, 0); stroke-width: 1px; fill: none; marker-end: url(&quot;#arrowhead&quot;);"/><path class="edge-path-hit-test" d="M52.84375,478.0302734375L52.84375,479.6969401041667C52.84375,481.3636067708333,52.84375,484.6969401041667,52.84375,488.0302734375C52.84375,491.3636067708333,52.84375,494.6969401041667,52.84375,496.3636067708333L52.84375,498.0302734375" style="pointer-events: stroke; stroke-width: 0.5em; fill: none; stroke: rgb(0, 0, 0); stroke-opacity: 0.001;"/><path id="edge-/path/path.10/Relu_output_0" class="edge-path" d="M52.84375,519.0302734375L52.84375,520.6969401041666C52.84375,522.3636067708334,52.84375,525.6969401041666,52.84375,529.0302734375C52.84375,532.3636067708334,52.84375,535.6969401041666,52.84375,537.3636067708334L52.84375,539.0302734375" style="stroke: rgb(0, 0, 0); stroke-width: 1px; fill: none; marker-end: url(&quot;#arrowhead&quot;);"/><path class="edge-path-hit-test" d="M52.84375,519.0302734375L52.84375,520.6969401041666C52.84375,522.3636067708334,52.84375,525.6969401041666,52.84375,529.0302734375C52.84375,532.3636067708334,52.84375,535.6969401041666,52.84375,537.3636067708334L52.84375,539.0302734375" style="pointer-events: stroke; stroke-width: 0.5em; fill: none; stroke: rgb(0, 0, 0); stroke-opacity: 0.001;"/><path id="edge-/path/path.12/Gemm_output_0" class="edge-path" d="M52.84375,592.0302734375L52.84375,593.6969401041666C52.84375,595.3636067708334,52.84375,598.6969401041666,52.84375,602.0302734375C52.84375,605.3636067708334,52.84375,608.6969401041666,52.84375,610.3636067708334L52.84375,612.0302734375" style="stroke: rgb(0, 0, 0); stroke-width: 1px; fill: none; marker-end: url(&quot;#arrowhead&quot;);"/><path class="edge-path-hit-test" d="M52.84375,592.0302734375L52.84375,593.6969401041666C52.84375,595.3636067708334,52.84375,598.6969401041666,52.84375,602.0302734375C52.84375,605.3636067708334,52.84375,608.6969401041666,52.84375,610.3636067708334L52.84375,612.0302734375" style="pointer-events: stroke; stroke-width: 0.5em; fill: none; stroke: rgb(0, 0, 0); stroke-opacity: 0.001;"/><path id="edge-/path/path.13/Relu_output_0" class="edge-path" d="M52.84375,633.0302734375L52.84375,634.6969401041666C52.84375,636.3636067708334,52.84375,639.6969401041666,52.84375,643.0302734375C52.84375,646.3636067708334,52.84375,649.6969401041666,52.84375,651.3636067708334L52.84375,653.0302734375" style="stroke: rgb(0, 0, 0); stroke-width: 1px; fill: none; marker-end: url(&quot;#arrowhead&quot;);"/><path class="edge-path-hit-test" d="M52.84375,633.0302734375L52.84375,634.6969401041666C52.84375,636.3636067708334,52.84375,639.6969401041666,52.84375,643.0302734375C52.84375,646.3636067708334,52.84375,649.6969401041666,52.84375,651.3636067708334L52.84375,653.0302734375" style="pointer-events: stroke; stroke-width: 0.5em; fill: none; stroke: rgb(0, 0, 0); stroke-opacity: 0.001;"/><path id="edge-/path/path.15/Gemm_output_0" class="edge-path" d="M52.84375,706.0302734375L52.84375,707.6969401041666C52.84375,709.3636067708334,52.84375,712.6969401041666,52.84375,716.0302734375C52.84375,719.3636067708334,52.84375,722.6969401041666,52.84375,724.3636067708334L52.84375,726.0302734375" style="stroke: rgb(0, 0, 0); stroke-width: 1px; fill: none; marker-end: url(&quot;#arrowhead&quot;);"/><path class="edge-path-hit-test" d="M52.84375,706.0302734375L52.84375,707.6969401041666C52.84375,709.3636067708334,52.84375,712.6969401041666,52.84375,716.0302734375C52.84375,719.3636067708334,52.84375,722.6969401041666,52.84375,724.3636067708334L52.84375,726.0302734375" style="pointer-events: stroke; stroke-width: 0.5em; fill: none; stroke: rgb(0, 0, 0); stroke-opacity: 0.001;"/><path id="edge-/path/path.16/Relu_output_0" class="edge-path" d="M52.84375,747.0302734375L52.84375,748.6969401041666C52.84375,750.3636067708334,52.84375,753.6969401041666,52.84375,757.0302734375C52.84375,760.3636067708334,52.84375,763.6969401041666,52.84375,765.3636067708334L52.84375,767.0302734375" style="stroke: rgb(0, 0, 0); stroke-width: 1px; fill: none; marker-end: url(&quot;#arrowhead&quot;);"/><path class="edge-path-hit-test" d="M52.84375,747.0302734375L52.84375,748.6969401041666C52.84375,750.3636067708334,52.84375,753.6969401041666,52.84375,757.0302734375C52.84375,760.3636067708334,52.84375,763.6969401041666,52.84375,765.3636067708334L52.84375,767.0302734375" style="pointer-events: stroke; stroke-width: 0.5em; fill: none; stroke: rgb(0, 0, 0); stroke-opacity: 0.001;"/><path id="edge-HP-ratio" class="edge-path" d="M52.84375,820.0302734375L52.84375,823.5302734375C52.84375,827.0302734375,52.84375,834.0302734375,52.84375,841.0302734375C52.84375,848.0302734375,52.84375,855.0302734375,52.84375,858.5302734375L52.84375,862.0302734375" style="stroke: rgb(0, 0, 0); stroke-width: 1px; fill: none; marker-end: url(&quot;#arrowhead&quot;);"/><path class="edge-path-hit-test" d="M52.84375,820.0302734375L52.84375,823.5302734375C52.84375,827.0302734375,52.84375,834.0302734375,52.84375,841.0302734375C52.84375,848.0302734375,52.84375,855.0302734375,52.84375,858.5302734375L52.84375,862.0302734375" style="pointer-events: stroke; stroke-width: 0.5em; fill: none; stroke: rgb(0, 0, 0); stroke-opacity: 0.001;"/></g><g id="edge-labels" class="edge-labels"><text class="edge-label" id="edge-label-edge-players-monsters" style="opacity: 1; font-family: -apple-system, BlinkMacSystemFont, &quot;Segoe WPC&quot;, &quot;Segoe UI&quot;, Ubuntu, &quot;Droid Sans&quot;, sans-serif, &quot;PingFang SC&quot;; font-size: 10px;" transform="translate(57.84375,46.0302734375)"><tspan xml:space="preserve" dy="1em" x="1">batch_size×40</tspan></text><text class="edge-label" id="edge-label-edge-HP-ratio" style="opacity: 1; font-family: -apple-system, BlinkMacSystemFont, &quot;Segoe WPC&quot;, &quot;Segoe UI&quot;, Ubuntu, &quot;Droid Sans&quot;, sans-serif, &quot;PingFang SC&quot;; font-size: 10px;" transform="translate(57.84375,835.0302734375)"><tspan xml:space="preserve" dy="1em" x="1">batch_size×1</tspan></text></g><g id="nodes" class="nodes"><g id="input-name-players-monsters" class="node graph-input" style="" transform="translate(0,0)"><g class="node-item graph-item-input" transform="translate(0,0)"><path d="M5,0h95.6875a5,5 0 0 1 5,5v11.0302734375a5,5 0 0 1 -5,5h-95.6875a5,5 0 0 1 -5,-5v-11.0302734375a5,5 0 0 1 5,-5z" style="stroke: rgb(0, 0, 0); fill: rgb(238, 238, 238); stroke-width: 0;"/><text x="6" y="15" style="font-family: -apple-system, BlinkMacSystemFont, &quot;Segoe WPC&quot;, &quot;Segoe UI&quot;, Ubuntu, &quot;Droid Sans&quot;, sans-serif, &quot;PingFang SC&quot;; font-size: 11px; text-rendering: geometricprecision; user-select: none;">players-monsters</text><title>float32[batch_size,40]</title></g><path class="node node-border" d="M5,0h95.6875a5,5 0 0 1 5,5v11.0302734375a5,5 0 0 1 -5,5h-95.6875a5,5 0 0 1 -5,-5v-11.0302734375a5,5 0 0 1 5,-5z" style="stroke: rgb(51, 51, 51); fill: none; stroke-width: 1px;"/></g><g id="node-name-/path/path.0/Gemm" class="node graph-node" style="" transform="translate(15.34375,83.0302734375)"><g class="node-item node-item-type node-item-type-layer" transform="translate(0,0)"><path d="M5,0h65a5,5 0 0 1 5,5v16a0,0 0 0 1 0,0h-75a0,0 0 0 1 0,0v-16a5,5 0 0 1 5,-5z" style="stroke: rgb(0, 0, 0); fill: rgb(51, 85, 136); stroke-width: 0;"/><text x="6" y="15" style="font-family: -apple-system, BlinkMacSystemFont, &quot;Segoe WPC&quot;, &quot;Segoe UI&quot;, Ubuntu, &quot;Droid Sans&quot;, sans-serif, &quot;PingFang SC&quot;; font-size: 11px; text-rendering: geometricprecision; user-select: none; fill: rgb(255, 255, 255);">Gemm</text><title>/path/path.0/Gemm</title></g><g class="node-attribute-list" transform="translate(0,21)"><path d="M0,0h75a0,0 0 0 1 0,0v27a5,5 0 0 1 -5,5h-65a5,5 0 0 1 -5,-5v-27a0,0 0 0 1 0,0z" style="stroke: rgb(0, 0, 0); fill: rgb(255, 255, 255); stroke-width: 0;"/><g class="node-attribute"><text xml:space="preserve" x="6" y="13" style="font-family: -apple-system, BlinkMacSystemFont, &quot;Segoe WPC&quot;, &quot;Segoe UI&quot;, Ubuntu, &quot;Droid Sans&quot;, sans-serif, &quot;PingFang SC&quot;; font-size: 9px; font-weight: normal; text-rendering: geometricprecision; user-select: none;"><title>float32[20,40]</title><tspan style="font-weight: bold;">B</tspan><tspan>〈20×40〉</tspan></text></g><g class="node-attribute"><text xml:space="preserve" x="6" y="26" style="font-family: -apple-system, BlinkMacSystemFont, &quot;Segoe WPC&quot;, &quot;Segoe UI&quot;, Ubuntu, &quot;Droid Sans&quot;, sans-serif, &quot;PingFang SC&quot;; font-size: 9px; font-weight: normal; text-rendering: geometricprecision; user-select: none;"><title>float32[20]</title><tspan style="font-weight: bold;">C</tspan><tspan>〈20〉</tspan></text></g><line class="node" x1="0" x2="75" y1="0" y2="0" style="stroke: rgb(51, 51, 51); fill: none; stroke-width: 1px;"/></g><path class="node node-border" d="M5,0h65a5,5 0 0 1 5,5v43a5,5 0 0 1 -5,5h-65a5,5 0 0 1 -5,-5v-43a5,5 0 0 1 5,-5z" style="stroke: rgb(51, 51, 51); fill: none; stroke-width: 1px;"/></g><g id="node-name-/path/path.1/Relu" class="node graph-node" style="" transform="translate(34.453125,156.0302734375)"><g class="node-item node-item-type node-item-type-activation" transform="translate(0,0)"><path d="M5,0h26.78125a5,5 0 0 1 5,5v11a5,5 0 0 1 -5,5h-26.78125a5,5 0 0 1 -5,-5v-11a5,5 0 0 1 5,-5z" style="stroke: rgb(0, 0, 0); fill: rgb(112, 41, 33); stroke-width: 0;"/><text x="6" y="15" style="font-family: -apple-system, BlinkMacSystemFont, &quot;Segoe WPC&quot;, &quot;Segoe UI&quot;, Ubuntu, &quot;Droid Sans&quot;, sans-serif, &quot;PingFang SC&quot;; font-size: 11px; text-rendering: geometricprecision; user-select: none; fill: rgb(255, 255, 255);">Relu</text><title>/path/path.1/Relu</title></g><path class="node node-border" d="M5,0h26.78125a5,5 0 0 1 5,5v11a5,5 0 0 1 -5,5h-26.78125a5,5 0 0 1 -5,-5v-11a5,5 0 0 1 5,-5z" style="stroke: rgb(51, 51, 51); fill: none; stroke-width: 1px;"/></g><g id="node-name-/path/path.3/Gemm" class="node graph-node" style="" transform="translate(15.34375,197.0302734375)"><g class="node-item node-item-type node-item-type-layer" transform="translate(0,0)"><path d="M5,0h65a5,5 0 0 1 5,5v16a0,0 0 0 1 0,0h-75a0,0 0 0 1 0,0v-16a5,5 0 0 1 5,-5z" style="stroke: rgb(0, 0, 0); fill: rgb(51, 85, 136); stroke-width: 0;"/><text x="6" y="15" style="font-family: -apple-system, BlinkMacSystemFont, &quot;Segoe WPC&quot;, &quot;Segoe UI&quot;, Ubuntu, &quot;Droid Sans&quot;, sans-serif, &quot;PingFang SC&quot;; font-size: 11px; text-rendering: geometricprecision; user-select: none; fill: rgb(255, 255, 255);">Gemm</text><title>/path/path.3/Gemm</title></g><g class="node-attribute-list" transform="translate(0,21)"><path d="M0,0h75a0,0 0 0 1 0,0v27a5,5 0 0 1 -5,5h-65a5,5 0 0 1 -5,-5v-27a0,0 0 0 1 0,0z" style="stroke: rgb(0, 0, 0); fill: rgb(255, 255, 255); stroke-width: 0;"/><g class="node-attribute"><text xml:space="preserve" x="6" y="13" style="font-family: -apple-system, BlinkMacSystemFont, &quot;Segoe WPC&quot;, &quot;Segoe UI&quot;, Ubuntu, &quot;Droid Sans&quot;, sans-serif, &quot;PingFang SC&quot;; font-size: 9px; font-weight: normal; text-rendering: geometricprecision; user-select: none;"><title>float32[40,20]</title><tspan style="font-weight: bold;">B</tspan><tspan>〈40×20〉</tspan></text></g><g class="node-attribute"><text xml:space="preserve" x="6" y="26" style="font-family: -apple-system, BlinkMacSystemFont, &quot;Segoe WPC&quot;, &quot;Segoe UI&quot;, Ubuntu, &quot;Droid Sans&quot;, sans-serif, &quot;PingFang SC&quot;; font-size: 9px; font-weight: normal; text-rendering: geometricprecision; user-select: none;"><title>float32[40]</title><tspan style="font-weight: bold;">C</tspan><tspan>〈40〉</tspan></text></g><line class="node" x1="0" x2="75" y1="0" y2="0" style="stroke: rgb(51, 51, 51); fill: none; stroke-width: 1px;"/></g><path class="node node-border" d="M5,0h65a5,5 0 0 1 5,5v43a5,5 0 0 1 -5,5h-65a5,5 0 0 1 -5,-5v-43a5,5 0 0 1 5,-5z" style="stroke: rgb(51, 51, 51); fill: none; stroke-width: 1px;"/></g><g id="node-name-/path/path.4/Relu" class="node graph-node" style="" transform="translate(34.453125,270.0302734375)"><g class="node-item node-item-type node-item-type-activation" transform="translate(0,0)"><path d="M5,0h26.78125a5,5 0 0 1 5,5v11a5,5 0 0 1 -5,5h-26.78125a5,5 0 0 1 -5,-5v-11a5,5 0 0 1 5,-5z" style="stroke: rgb(0, 0, 0); fill: rgb(112, 41, 33); stroke-width: 0;"/><text x="6" y="15" style="font-family: -apple-system, BlinkMacSystemFont, &quot;Segoe WPC&quot;, &quot;Segoe UI&quot;, Ubuntu, &quot;Droid Sans&quot;, sans-serif, &quot;PingFang SC&quot;; font-size: 11px; text-rendering: geometricprecision; user-select: none; fill: rgb(255, 255, 255);">Relu</text><title>/path/path.4/Relu</title></g><path class="node node-border" d="M5,0h26.78125a5,5 0 0 1 5,5v11a5,5 0 0 1 -5,5h-26.78125a5,5 0 0 1 -5,-5v-11a5,5 0 0 1 5,-5z" style="stroke: rgb(51, 51, 51); fill: none; stroke-width: 1px;"/></g><g id="node-name-/path/path.6/Gemm" class="node graph-node" style="" transform="translate(15.34375,311.0302734375)"><g class="node-item node-item-type node-item-type-layer" transform="translate(0,0)"><path d="M5,0h65a5,5 0 0 1 5,5v16a0,0 0 0 1 0,0h-75a0,0 0 0 1 0,0v-16a5,5 0 0 1 5,-5z" style="stroke: rgb(0, 0, 0); fill: rgb(51, 85, 136); stroke-width: 0;"/><text x="6" y="15" style="font-family: -apple-system, BlinkMacSystemFont, &quot;Segoe WPC&quot;, &quot;Segoe UI&quot;, Ubuntu, &quot;Droid Sans&quot;, sans-serif, &quot;PingFang SC&quot;; font-size: 11px; text-rendering: geometricprecision; user-select: none; fill: rgb(255, 255, 255);">Gemm</text><title>/path/path.6/Gemm</title></g><g class="node-attribute-list" transform="translate(0,21)"><path d="M0,0h75a0,0 0 0 1 0,0v27a5,5 0 0 1 -5,5h-65a5,5 0 0 1 -5,-5v-27a0,0 0 0 1 0,0z" style="stroke: rgb(0, 0, 0); fill: rgb(255, 255, 255); stroke-width: 0;"/><g class="node-attribute"><text xml:space="preserve" x="6" y="13" style="font-family: -apple-system, BlinkMacSystemFont, &quot;Segoe WPC&quot;, &quot;Segoe UI&quot;, Ubuntu, &quot;Droid Sans&quot;, sans-serif, &quot;PingFang SC&quot;; font-size: 9px; font-weight: normal; text-rendering: geometricprecision; user-select: none;"><title>float32[80,40]</title><tspan style="font-weight: bold;">B</tspan><tspan>〈80×40〉</tspan></text></g><g class="node-attribute"><text xml:space="preserve" x="6" y="26" style="font-family: -apple-system, BlinkMacSystemFont, &quot;Segoe WPC&quot;, &quot;Segoe UI&quot;, Ubuntu, &quot;Droid Sans&quot;, sans-serif, &quot;PingFang SC&quot;; font-size: 9px; font-weight: normal; text-rendering: geometricprecision; user-select: none;"><title>float32[80]</title><tspan style="font-weight: bold;">C</tspan><tspan>〈80〉</tspan></text></g><line class="node" x1="0" x2="75" y1="0" y2="0" style="stroke: rgb(51, 51, 51); fill: none; stroke-width: 1px;"/></g><path class="node node-border" d="M5,0h65a5,5 0 0 1 5,5v43a5,5 0 0 1 -5,5h-65a5,5 0 0 1 -5,-5v-43a5,5 0 0 1 5,-5z" style="stroke: rgb(51, 51, 51); fill: none; stroke-width: 1px;"/></g><g id="node-name-/path/path.7/Relu" class="node graph-node" style="" transform="translate(34.453125,384.0302734375)"><g class="node-item node-item-type node-item-type-activation" transform="translate(0,0)"><path d="M5,0h26.78125a5,5 0 0 1 5,5v11a5,5 0 0 1 -5,5h-26.78125a5,5 0 0 1 -5,-5v-11a5,5 0 0 1 5,-5z" style="stroke: rgb(0, 0, 0); fill: rgb(112, 41, 33); stroke-width: 0;"/><text x="6" y="15" style="font-family: -apple-system, BlinkMacSystemFont, &quot;Segoe WPC&quot;, &quot;Segoe UI&quot;, Ubuntu, &quot;Droid Sans&quot;, sans-serif, &quot;PingFang SC&quot;; font-size: 11px; text-rendering: geometricprecision; user-select: none; fill: rgb(255, 255, 255);">Relu</text><title>/path/path.7/Relu</title></g><path class="node node-border" d="M5,0h26.78125a5,5 0 0 1 5,5v11a5,5 0 0 1 -5,5h-26.78125a5,5 0 0 1 -5,-5v-11a5,5 0 0 1 5,-5z" style="stroke: rgb(51, 51, 51); fill: none; stroke-width: 1px;"/></g><g id="node-name-/path/path.9/Gemm" class="node graph-node" style="" transform="translate(15.34375,425.0302734375)"><g class="node-item node-item-type node-item-type-layer" transform="translate(0,0)"><path d="M5,0h65a5,5 0 0 1 5,5v16a0,0 0 0 1 0,0h-75a0,0 0 0 1 0,0v-16a5,5 0 0 1 5,-5z" style="stroke: rgb(0, 0, 0); fill: rgb(51, 85, 136); stroke-width: 0;"/><text x="6" y="15" style="font-family: -apple-system, BlinkMacSystemFont, &quot;Segoe WPC&quot;, &quot;Segoe UI&quot;, Ubuntu, &quot;Droid Sans&quot;, sans-serif, &quot;PingFang SC&quot;; font-size: 11px; text-rendering: geometricprecision; user-select: none; fill: rgb(255, 255, 255);">Gemm</text><title>/path/path.9/Gemm</title></g><g class="node-attribute-list" transform="translate(0,21)"><path d="M0,0h75a0,0 0 0 1 0,0v27a5,5 0 0 1 -5,5h-65a5,5 0 0 1 -5,-5v-27a0,0 0 0 1 0,0z" style="stroke: rgb(0, 0, 0); fill: rgb(255, 255, 255); stroke-width: 0;"/><g class="node-attribute"><text xml:space="preserve" x="6" y="13" style="font-family: -apple-system, BlinkMacSystemFont, &quot;Segoe WPC&quot;, &quot;Segoe UI&quot;, Ubuntu, &quot;Droid Sans&quot;, sans-serif, &quot;PingFang SC&quot;; font-size: 9px; font-weight: normal; text-rendering: geometricprecision; user-select: none;"><title>float32[80,80]</title><tspan style="font-weight: bold;">B</tspan><tspan>〈80×80〉</tspan></text></g><g class="node-attribute"><text xml:space="preserve" x="6" y="26" style="font-family: -apple-system, BlinkMacSystemFont, &quot;Segoe WPC&quot;, &quot;Segoe UI&quot;, Ubuntu, &quot;Droid Sans&quot;, sans-serif, &quot;PingFang SC&quot;; font-size: 9px; font-weight: normal; text-rendering: geometricprecision; user-select: none;"><title>float32[80]</title><tspan style="font-weight: bold;">C</tspan><tspan>〈80〉</tspan></text></g><line class="node" x1="0" x2="75" y1="0" y2="0" style="stroke: rgb(51, 51, 51); fill: none; stroke-width: 1px;"/></g><path class="node node-border" d="M5,0h65a5,5 0 0 1 5,5v43a5,5 0 0 1 -5,5h-65a5,5 0 0 1 -5,-5v-43a5,5 0 0 1 5,-5z" style="stroke: rgb(51, 51, 51); fill: none; stroke-width: 1px;"/></g><g id="node-name-/path/path.10/Relu" class="node graph-node" style="" transform="translate(34.453125,498.0302734375)"><g class="node-item node-item-type node-item-type-activation" transform="translate(0,0)"><path d="M5,0h26.78125a5,5 0 0 1 5,5v11a5,5 0 0 1 -5,5h-26.78125a5,5 0 0 1 -5,-5v-11a5,5 0 0 1 5,-5z" style="stroke: rgb(0, 0, 0); fill: rgb(112, 41, 33); stroke-width: 0;"/><text x="6" y="15" style="font-family: -apple-system, BlinkMacSystemFont, &quot;Segoe WPC&quot;, &quot;Segoe UI&quot;, Ubuntu, &quot;Droid Sans&quot;, sans-serif, &quot;PingFang SC&quot;; font-size: 11px; text-rendering: geometricprecision; user-select: none; fill: rgb(255, 255, 255);">Relu</text><title>/path/path.10/Relu</title></g><path class="node node-border" d="M5,0h26.78125a5,5 0 0 1 5,5v11a5,5 0 0 1 -5,5h-26.78125a5,5 0 0 1 -5,-5v-11a5,5 0 0 1 5,-5z" style="stroke: rgb(51, 51, 51); fill: none; stroke-width: 1px;"/></g><g id="node-name-/path/path.12/Gemm" class="node graph-node" style="" transform="translate(15.34375,539.0302734375)"><g class="node-item node-item-type node-item-type-layer" transform="translate(0,0)"><path d="M5,0h65a5,5 0 0 1 5,5v16a0,0 0 0 1 0,0h-75a0,0 0 0 1 0,0v-16a5,5 0 0 1 5,-5z" style="stroke: rgb(0, 0, 0); fill: rgb(51, 85, 136); stroke-width: 0;"/><text x="6" y="15" style="font-family: -apple-system, BlinkMacSystemFont, &quot;Segoe WPC&quot;, &quot;Segoe UI&quot;, Ubuntu, &quot;Droid Sans&quot;, sans-serif, &quot;PingFang SC&quot;; font-size: 11px; text-rendering: geometricprecision; user-select: none; fill: rgb(255, 255, 255);">Gemm</text><title>/path/path.12/Gemm</title></g><g class="node-attribute-list" transform="translate(0,21)"><path d="M0,0h75a0,0 0 0 1 0,0v27a5,5 0 0 1 -5,5h-65a5,5 0 0 1 -5,-5v-27a0,0 0 0 1 0,0z" style="stroke: rgb(0, 0, 0); fill: rgb(255, 255, 255); stroke-width: 0;"/><g class="node-attribute"><text xml:space="preserve" x="6" y="13" style="font-family: -apple-system, BlinkMacSystemFont, &quot;Segoe WPC&quot;, &quot;Segoe UI&quot;, Ubuntu, &quot;Droid Sans&quot;, sans-serif, &quot;PingFang SC&quot;; font-size: 9px; font-weight: normal; text-rendering: geometricprecision; user-select: none;"><title>float32[40,80]</title><tspan style="font-weight: bold;">B</tspan><tspan>〈40×80〉</tspan></text></g><g class="node-attribute"><text xml:space="preserve" x="6" y="26" style="font-family: -apple-system, BlinkMacSystemFont, &quot;Segoe WPC&quot;, &quot;Segoe UI&quot;, Ubuntu, &quot;Droid Sans&quot;, sans-serif, &quot;PingFang SC&quot;; font-size: 9px; font-weight: normal; text-rendering: geometricprecision; user-select: none;"><title>float32[40]</title><tspan style="font-weight: bold;">C</tspan><tspan>〈40〉</tspan></text></g><line class="node" x1="0" x2="75" y1="0" y2="0" style="stroke: rgb(51, 51, 51); fill: none; stroke-width: 1px;"/></g><path class="node node-border" d="M5,0h65a5,5 0 0 1 5,5v43a5,5 0 0 1 -5,5h-65a5,5 0 0 1 -5,-5v-43a5,5 0 0 1 5,-5z" style="stroke: rgb(51, 51, 51); fill: none; stroke-width: 1px;"/></g><g id="node-name-/path/path.13/Relu" class="node graph-node" style="" transform="translate(34.453125,612.0302734375)"><g class="node-item node-item-type node-item-type-activation" transform="translate(0,0)"><path d="M5,0h26.78125a5,5 0 0 1 5,5v11a5,5 0 0 1 -5,5h-26.78125a5,5 0 0 1 -5,-5v-11a5,5 0 0 1 5,-5z" style="stroke: rgb(0, 0, 0); fill: rgb(112, 41, 33); stroke-width: 0;"/><text x="6" y="15" style="font-family: -apple-system, BlinkMacSystemFont, &quot;Segoe WPC&quot;, &quot;Segoe UI&quot;, Ubuntu, &quot;Droid Sans&quot;, sans-serif, &quot;PingFang SC&quot;; font-size: 11px; text-rendering: geometricprecision; user-select: none; fill: rgb(255, 255, 255);">Relu</text><title>/path/path.13/Relu</title></g><path class="node node-border" d="M5,0h26.78125a5,5 0 0 1 5,5v11a5,5 0 0 1 -5,5h-26.78125a5,5 0 0 1 -5,-5v-11a5,5 0 0 1 5,-5z" style="stroke: rgb(51, 51, 51); fill: none; stroke-width: 1px;"/></g><g id="node-name-/path/path.15/Gemm" class="node graph-node" style="" transform="translate(15.34375,653.0302734375)"><g class="node-item node-item-type node-item-type-layer" transform="translate(0,0)"><path d="M5,0h65a5,5 0 0 1 5,5v16a0,0 0 0 1 0,0h-75a0,0 0 0 1 0,0v-16a5,5 0 0 1 5,-5z" style="stroke: rgb(0, 0, 0); fill: rgb(51, 85, 136); stroke-width: 0;"/><text x="6" y="15" style="font-family: -apple-system, BlinkMacSystemFont, &quot;Segoe WPC&quot;, &quot;Segoe UI&quot;, Ubuntu, &quot;Droid Sans&quot;, sans-serif, &quot;PingFang SC&quot;; font-size: 11px; text-rendering: geometricprecision; user-select: none; fill: rgb(255, 255, 255);">Gemm</text><title>/path/path.15/Gemm</title></g><g class="node-attribute-list" transform="translate(0,21)"><path d="M0,0h75a0,0 0 0 1 0,0v27a5,5 0 0 1 -5,5h-65a5,5 0 0 1 -5,-5v-27a0,0 0 0 1 0,0z" style="stroke: rgb(0, 0, 0); fill: rgb(255, 255, 255); stroke-width: 0;"/><g class="node-attribute"><text xml:space="preserve" x="6" y="13" style="font-family: -apple-system, BlinkMacSystemFont, &quot;Segoe WPC&quot;, &quot;Segoe UI&quot;, Ubuntu, &quot;Droid Sans&quot;, sans-serif, &quot;PingFang SC&quot;; font-size: 9px; font-weight: normal; text-rendering: geometricprecision; user-select: none;"><title>float32[20,40]</title><tspan style="font-weight: bold;">B</tspan><tspan>〈20×40〉</tspan></text></g><g class="node-attribute"><text xml:space="preserve" x="6" y="26" style="font-family: -apple-system, BlinkMacSystemFont, &quot;Segoe WPC&quot;, &quot;Segoe UI&quot;, Ubuntu, &quot;Droid Sans&quot;, sans-serif, &quot;PingFang SC&quot;; font-size: 9px; font-weight: normal; text-rendering: geometricprecision; user-select: none;"><title>float32[20]</title><tspan style="font-weight: bold;">C</tspan><tspan>〈20〉</tspan></text></g><line class="node" x1="0" x2="75" y1="0" y2="0" style="stroke: rgb(51, 51, 51); fill: none; stroke-width: 1px;"/></g><path class="node node-border" d="M5,0h65a5,5 0 0 1 5,5v43a5,5 0 0 1 -5,5h-65a5,5 0 0 1 -5,-5v-43a5,5 0 0 1 5,-5z" style="stroke: rgb(51, 51, 51); fill: none; stroke-width: 1px;"/></g><g id="node-name-/path/path.16/Relu" class="node graph-node" style="" transform="translate(34.453125,726.0302734375)"><g class="node-item node-item-type node-item-type-activation" transform="translate(0,0)"><path d="M5,0h26.78125a5,5 0 0 1 5,5v11a5,5 0 0 1 -5,5h-26.78125a5,5 0 0 1 -5,-5v-11a5,5 0 0 1 5,-5z" style="stroke: rgb(0, 0, 0); fill: rgb(112, 41, 33); stroke-width: 0;"/><text x="6" y="15" style="font-family: -apple-system, BlinkMacSystemFont, &quot;Segoe WPC&quot;, &quot;Segoe UI&quot;, Ubuntu, &quot;Droid Sans&quot;, sans-serif, &quot;PingFang SC&quot;; font-size: 11px; text-rendering: geometricprecision; user-select: none; fill: rgb(255, 255, 255);">Relu</text><title>/path/path.16/Relu</title></g><path class="node node-border" d="M5,0h26.78125a5,5 0 0 1 5,5v11a5,5 0 0 1 -5,5h-26.78125a5,5 0 0 1 -5,-5v-11a5,5 0 0 1 5,-5z" style="stroke: rgb(51, 51, 51); fill: none; stroke-width: 1px;"/></g><g id="node-name-/path/path.18/Gemm" class="node graph-node" style="" transform="translate(15.34375,767.0302734375)"><g class="node-item node-item-type node-item-type-layer" transform="translate(0,0)"><path d="M5,0h65a5,5 0 0 1 5,5v16a0,0 0 0 1 0,0h-75a0,0 0 0 1 0,0v-16a5,5 0 0 1 5,-5z" style="stroke: rgb(0, 0, 0); fill: rgb(51, 85, 136); stroke-width: 0;"/><text x="6" y="15" style="font-family: -apple-system, BlinkMacSystemFont, &quot;Segoe WPC&quot;, &quot;Segoe UI&quot;, Ubuntu, &quot;Droid Sans&quot;, sans-serif, &quot;PingFang SC&quot;; font-size: 11px; text-rendering: geometricprecision; user-select: none; fill: rgb(255, 255, 255);">Gemm</text><title>/path/path.18/Gemm</title></g><g class="node-attribute-list" transform="translate(0,21)"><path d="M0,0h75a0,0 0 0 1 0,0v27a5,5 0 0 1 -5,5h-65a5,5 0 0 1 -5,-5v-27a0,0 0 0 1 0,0z" style="stroke: rgb(0, 0, 0); fill: rgb(255, 255, 255); stroke-width: 0;"/><g class="node-attribute"><text xml:space="preserve" x="6" y="13" style="font-family: -apple-system, BlinkMacSystemFont, &quot;Segoe WPC&quot;, &quot;Segoe UI&quot;, Ubuntu, &quot;Droid Sans&quot;, sans-serif, &quot;PingFang SC&quot;; font-size: 9px; font-weight: normal; text-rendering: geometricprecision; user-select: none;"><title>float32[1,20]</title><tspan style="font-weight: bold;">B</tspan><tspan>〈1×20〉</tspan></text></g><g class="node-attribute"><text xml:space="preserve" x="6" y="26" style="font-family: -apple-system, BlinkMacSystemFont, &quot;Segoe WPC&quot;, &quot;Segoe UI&quot;, Ubuntu, &quot;Droid Sans&quot;, sans-serif, &quot;PingFang SC&quot;; font-size: 9px; font-weight: normal; text-rendering: geometricprecision; user-select: none;"><title>float32[1]</title><tspan style="font-weight: bold;">C</tspan><tspan>〈1〉</tspan></text></g><line class="node" x1="0" x2="75" y1="0" y2="0" style="stroke: rgb(51, 51, 51); fill: none; stroke-width: 1px;"/></g><path class="node node-border" d="M5,0h65a5,5 0 0 1 5,5v43a5,5 0 0 1 -5,5h-65a5,5 0 0 1 -5,-5v-43a5,5 0 0 1 5,-5z" style="stroke: rgb(51, 51, 51); fill: none; stroke-width: 1px;"/></g><g class="node" style="" transform="translate(23.6796875,862.0302734375)"><g class="node-item graph-item-output" transform="translate(0,0)"><path d="M5,0h48.328125a5,5 0 0 1 5,5v11a5,5 0 0 1 -5,5h-48.328125a5,5 0 0 1 -5,-5v-11a5,5 0 0 1 5,-5z" style="stroke: rgb(0, 0, 0); fill: rgb(238, 238, 238); stroke-width: 0;"/><text x="6" y="15" style="font-family: -apple-system, BlinkMacSystemFont, &quot;Segoe WPC&quot;, &quot;Segoe UI&quot;, Ubuntu, &quot;Droid Sans&quot;, sans-serif, &quot;PingFang SC&quot;; font-size: 11px; text-rendering: geometricprecision; user-select: none;">HP-ratio</text><title>float32[batch_size,1]</title></g><path class="node node-border" d="M5,0h48.328125a5,5 0 0 1 5,5v11a5,5 0 0 1 -5,5h-48.328125a5,5 0 0 1 -5,-5v-11a5,5 0 0 1 5,-5z" style="stroke: rgb(51, 51, 51); fill: none; stroke-width: 1px;"/></g></g></g></svg>